<mxfile host="65bd71144e">
    <diagram name="PÃ¡gina-1" id="GIiXguG_KVm9ZjWrBo3u">
        <mxGraphModel dx="3075" dy="3633" grid="1" gridSize="10" guides="1" tooltips="1" connect="1" arrows="1" fold="1" page="1" pageScale="1" pageWidth="827" pageHeight="1169" math="0" shadow="0">
            <root>
                <mxCell id="0"/>
                <mxCell id="1" parent="0"/>
                <mxCell id="sQJhGlACAiVFc_NwoBth-1" value="Loja" style="rounded=0;whiteSpace=wrap;html=1;" parent="1" vertex="1">
                    <mxGeometry x="-793" y="-480" width="120" height="60" as="geometry"/>
                </mxCell>
                <mxCell id="sQJhGlACAiVFc_NwoBth-3" value="Categorias" style="rounded=0;whiteSpace=wrap;html=1;" parent="1" vertex="1">
                    <mxGeometry x="-793" y="-690" width="120" height="60" as="geometry"/>
                </mxCell>
                <mxCell id="sQJhGlACAiVFc_NwoBth-4" value="SubCategorias" style="rounded=0;whiteSpace=wrap;html=1;" parent="1" vertex="1">
                    <mxGeometry x="-793" y="-870" width="120" height="60" as="geometry"/>
                </mxCell>
                <mxCell id="sQJhGlACAiVFc_NwoBth-5" value="Produto" style="rounded=0;whiteSpace=wrap;html=1;" parent="1" vertex="1">
                    <mxGeometry x="-553" y="-760" width="120" height="60" as="geometry"/>
                </mxCell>
                <mxCell id="sQJhGlACAiVFc_NwoBth-9" value="Cliente" style="rounded=0;whiteSpace=wrap;html=1;" parent="1" vertex="1">
                    <mxGeometry x="-153" y="-560" width="120" height="60" as="geometry"/>
                </mxCell>
                <mxCell id="sQJhGlACAiVFc_NwoBth-10" value="Pedido" style="rounded=0;whiteSpace=wrap;html=1;" parent="1" vertex="1">
                    <mxGeometry x="-153" y="-760" width="120" height="60" as="geometry"/>
                </mxCell>
                <mxCell id="sQJhGlACAiVFc_NwoBth-11" value="Efetua" style="rhombus;whiteSpace=wrap;html=1;" parent="1" vertex="1">
                    <mxGeometry x="-133" y="-670" width="80" height="80" as="geometry"/>
                </mxCell>
                <mxCell id="sQJhGlACAiVFc_NwoBth-12" value="" style="endArrow=none;html=1;rounded=0;entryX=0.5;entryY=1;entryDx=0;entryDy=0;exitX=0.5;exitY=0;exitDx=0;exitDy=0;" parent="1" source="sQJhGlACAiVFc_NwoBth-11" target="sQJhGlACAiVFc_NwoBth-10" edge="1">
                    <mxGeometry width="50" height="50" relative="1" as="geometry">
                        <mxPoint x="-293" y="-610" as="sourcePoint"/>
                        <mxPoint x="-243" y="-660" as="targetPoint"/>
                    </mxGeometry>
                </mxCell>
                <mxCell id="sQJhGlACAiVFc_NwoBth-13" value="" style="endArrow=none;html=1;rounded=0;exitX=0.5;exitY=0;exitDx=0;exitDy=0;entryX=0.5;entryY=1;entryDx=0;entryDy=0;" parent="1" source="sQJhGlACAiVFc_NwoBth-9" target="sQJhGlACAiVFc_NwoBth-11" edge="1">
                    <mxGeometry width="50" height="50" relative="1" as="geometry">
                        <mxPoint x="7" y="-650" as="sourcePoint"/>
                        <mxPoint x="37" y="-620" as="targetPoint"/>
                        <Array as="points"/>
                    </mxGeometry>
                </mxCell>
                <mxCell id="sQJhGlACAiVFc_NwoBth-14" value="N" style="text;html=1;align=center;verticalAlign=middle;resizable=0;points=[];autosize=1;strokeColor=none;fillColor=none;" parent="1" vertex="1">
                    <mxGeometry x="-93" y="-700" width="30" height="30" as="geometry"/>
                </mxCell>
                <mxCell id="sQJhGlACAiVFc_NwoBth-17" value="1" style="text;html=1;align=center;verticalAlign=middle;resizable=0;points=[];autosize=1;strokeColor=none;fillColor=none;" parent="1" vertex="1">
                    <mxGeometry x="-93" y="-590" width="30" height="30" as="geometry"/>
                </mxCell>
                <mxCell id="sQJhGlACAiVFc_NwoBth-18" value="" style="endArrow=none;html=1;rounded=0;exitX=1;exitY=0.5;exitDx=0;exitDy=0;entryX=0;entryY=0.5;entryDx=0;entryDy=0;" parent="1" source="sQJhGlACAiVFc_NwoBth-5" target="sQJhGlACAiVFc_NwoBth-19" edge="1">
                    <mxGeometry width="50" height="50" relative="1" as="geometry">
                        <mxPoint x="-283" y="-730" as="sourcePoint"/>
                        <mxPoint x="-343" y="-730" as="targetPoint"/>
                    </mxGeometry>
                </mxCell>
                <mxCell id="sQJhGlACAiVFc_NwoBth-19" value="Possui" style="rhombus;whiteSpace=wrap;html=1;" parent="1" vertex="1">
                    <mxGeometry x="-339" y="-770" width="80" height="80" as="geometry"/>
                </mxCell>
                <mxCell id="sQJhGlACAiVFc_NwoBth-20" value="" style="endArrow=none;html=1;rounded=0;exitX=1;exitY=0.5;exitDx=0;exitDy=0;entryX=0;entryY=0.5;entryDx=0;entryDy=0;" parent="1" source="sQJhGlACAiVFc_NwoBth-19" target="sQJhGlACAiVFc_NwoBth-10" edge="1">
                    <mxGeometry width="50" height="50" relative="1" as="geometry">
                        <mxPoint x="-259" y="-700" as="sourcePoint"/>
                        <mxPoint x="-165" y="-700" as="targetPoint"/>
                    </mxGeometry>
                </mxCell>
                <mxCell id="sQJhGlACAiVFc_NwoBth-22" value="N" style="text;html=1;align=center;verticalAlign=middle;resizable=0;points=[];autosize=1;strokeColor=none;fillColor=none;" parent="1" vertex="1">
                    <mxGeometry x="-433" y="-760" width="30" height="30" as="geometry"/>
                </mxCell>
                <mxCell id="sQJhGlACAiVFc_NwoBth-24" value="N" style="text;html=1;align=center;verticalAlign=middle;resizable=0;points=[];autosize=1;strokeColor=none;fillColor=none;" parent="1" vertex="1">
                    <mxGeometry x="-183" y="-730" width="30" height="30" as="geometry"/>
                </mxCell>
                <mxCell id="sQJhGlACAiVFc_NwoBth-26" value="Possui" style="rhombus;whiteSpace=wrap;html=1;" parent="1" vertex="1">
                    <mxGeometry x="-533" y="-880" width="80" height="80" as="geometry"/>
                </mxCell>
                <mxCell id="sQJhGlACAiVFc_NwoBth-27" value="" style="endArrow=none;html=1;rounded=0;entryX=1;entryY=0.5;entryDx=0;entryDy=0;exitX=0;exitY=0.5;exitDx=0;exitDy=0;" parent="1" source="sQJhGlACAiVFc_NwoBth-26" target="sQJhGlACAiVFc_NwoBth-4" edge="1">
                    <mxGeometry width="50" height="50" relative="1" as="geometry">
                        <mxPoint x="-603" y="-740" as="sourcePoint"/>
                        <mxPoint x="-493" y="-830" as="targetPoint"/>
                    </mxGeometry>
                </mxCell>
                <mxCell id="sQJhGlACAiVFc_NwoBth-28" value="" style="endArrow=none;html=1;rounded=0;exitX=0.5;exitY=0;exitDx=0;exitDy=0;" parent="1" source="sQJhGlACAiVFc_NwoBth-5" edge="1">
                    <mxGeometry width="50" height="50" relative="1" as="geometry">
                        <mxPoint x="-483" y="-870" as="sourcePoint"/>
                        <mxPoint x="-493" y="-800" as="targetPoint"/>
                    </mxGeometry>
                </mxCell>
                <mxCell id="sQJhGlACAiVFc_NwoBth-30" value="1" style="text;html=1;align=center;verticalAlign=middle;resizable=0;points=[];autosize=1;strokeColor=none;fillColor=none;" parent="1" vertex="1">
                    <mxGeometry x="-673" y="-870" width="30" height="30" as="geometry"/>
                </mxCell>
                <mxCell id="sQJhGlACAiVFc_NwoBth-31" value="N" style="text;html=1;align=center;verticalAlign=middle;resizable=0;points=[];autosize=1;strokeColor=none;fillColor=none;" parent="1" vertex="1">
                    <mxGeometry x="-493" y="-790" width="30" height="30" as="geometry"/>
                </mxCell>
                <mxCell id="sQJhGlACAiVFc_NwoBth-32" value="Possui" style="rhombus;whiteSpace=wrap;html=1;" parent="1" vertex="1">
                    <mxGeometry x="-773" y="-590" width="80" height="80" as="geometry"/>
                </mxCell>
                <mxCell id="sQJhGlACAiVFc_NwoBth-33" value="" style="endArrow=none;html=1;rounded=0;entryX=0.5;entryY=1;entryDx=0;entryDy=0;exitX=0.5;exitY=0;exitDx=0;exitDy=0;" parent="1" source="sQJhGlACAiVFc_NwoBth-32" target="sQJhGlACAiVFc_NwoBth-3" edge="1">
                    <mxGeometry width="50" height="50" relative="1" as="geometry">
                        <mxPoint x="-833" y="-550" as="sourcePoint"/>
                        <mxPoint x="-783" y="-600" as="targetPoint"/>
                    </mxGeometry>
                </mxCell>
                <mxCell id="sQJhGlACAiVFc_NwoBth-34" value="" style="endArrow=none;html=1;rounded=0;entryX=0.5;entryY=1;entryDx=0;entryDy=0;exitX=0.5;exitY=0;exitDx=0;exitDy=0;" parent="1" source="sQJhGlACAiVFc_NwoBth-1" target="sQJhGlACAiVFc_NwoBth-32" edge="1">
                    <mxGeometry width="50" height="50" relative="1" as="geometry">
                        <mxPoint x="-883" y="-470" as="sourcePoint"/>
                        <mxPoint x="-833" y="-520" as="targetPoint"/>
                    </mxGeometry>
                </mxCell>
                <mxCell id="sQJhGlACAiVFc_NwoBth-35" value="N" style="text;html=1;align=center;verticalAlign=middle;resizable=0;points=[];autosize=1;strokeColor=none;fillColor=none;" parent="1" vertex="1">
                    <mxGeometry x="-733" y="-630" width="30" height="30" as="geometry"/>
                </mxCell>
                <mxCell id="sQJhGlACAiVFc_NwoBth-36" value="1" style="text;html=1;align=center;verticalAlign=middle;resizable=0;points=[];autosize=1;strokeColor=none;fillColor=none;" parent="1" vertex="1">
                    <mxGeometry x="-733" y="-510" width="30" height="30" as="geometry"/>
                </mxCell>
                <mxCell id="sQJhGlACAiVFc_NwoBth-37" value="Possui" style="rhombus;whiteSpace=wrap;html=1;" parent="1" vertex="1">
                    <mxGeometry x="-773" y="-790" width="80" height="80" as="geometry"/>
                </mxCell>
                <mxCell id="sQJhGlACAiVFc_NwoBth-38" value="" style="endArrow=none;html=1;rounded=0;entryX=0.5;entryY=1;entryDx=0;entryDy=0;exitX=0.5;exitY=0;exitDx=0;exitDy=0;" parent="1" source="sQJhGlACAiVFc_NwoBth-37" target="sQJhGlACAiVFc_NwoBth-4" edge="1">
                    <mxGeometry width="50" height="50" relative="1" as="geometry">
                        <mxPoint x="-643" y="-710" as="sourcePoint"/>
                        <mxPoint x="-593" y="-760" as="targetPoint"/>
                    </mxGeometry>
                </mxCell>
                <mxCell id="sQJhGlACAiVFc_NwoBth-39" value="" style="endArrow=none;html=1;rounded=0;exitX=0.5;exitY=0;exitDx=0;exitDy=0;entryX=0.5;entryY=1;entryDx=0;entryDy=0;" parent="1" source="sQJhGlACAiVFc_NwoBth-3" target="sQJhGlACAiVFc_NwoBth-37" edge="1">
                    <mxGeometry width="50" height="50" relative="1" as="geometry">
                        <mxPoint x="-673" y="-660" as="sourcePoint"/>
                        <mxPoint x="-623" y="-710" as="targetPoint"/>
                    </mxGeometry>
                </mxCell>
                <mxCell id="sQJhGlACAiVFc_NwoBth-40" value="N" style="text;html=1;align=center;verticalAlign=middle;resizable=0;points=[];autosize=1;strokeColor=none;fillColor=none;" parent="1" vertex="1">
                    <mxGeometry x="-733" y="-810" width="30" height="30" as="geometry"/>
                </mxCell>
                <mxCell id="sQJhGlACAiVFc_NwoBth-41" value="1" style="text;html=1;align=center;verticalAlign=middle;resizable=0;points=[];autosize=1;strokeColor=none;fillColor=none;" parent="1" vertex="1">
                    <mxGeometry x="-733" y="-720" width="30" height="30" as="geometry"/>
                </mxCell>
                <mxCell id="sQJhGlACAiVFc_NwoBth-42" value="Uma Loja possui vÃ¡rias categorias&#10;Uma categoria possui subcategorias&#10;Um produto possui uma subcategoria&#10;Um cliente efetua um pedido&#10;Um pedido pode ter 1 ou vÃ¡rios produtos" style="text;whiteSpace=wrap;fontSize=20;" parent="1" vertex="1">
                    <mxGeometry x="-793" y="-1030" width="550" height="100" as="geometry"/>
                </mxCell>
            </root>
        </mxGraphModel>
    </diagram>
</mxfile>